<svg xmlns="http://www.w3.org/2000/svg" viewBox="0 0 400 500" fill="none" stroke="#d4af37" stroke-width="2">
  <!-- Buddha Meditation Silhouette -->
  <path d="
    M200 50
    C220 50, 235 65, 235 90
    C235 100, 230 110, 220 115
    C225 120, 228 130, 228 140
    C228 160, 215 175, 200 175
    C185 175, 172 160, 172 140
    C172 130, 175 120, 180 115
    C170 110, 165 100, 165 90
    C165 65, 180 50, 200 50
    Z
    M165 175
    C140 180, 100 200, 80 250
    C60 300, 55 350, 60 400
    C65 420, 80 440, 120 450
    L120 455
    C100 460, 70 465, 50 470
    L50 480
    L350 480
    L350 470
    C330 465, 300 460, 280 455
    L280 450
    C320 440, 335 420, 340 400
    C345 350, 340 300, 320 250
    C300 200, 260 180, 235 175
    Z
    M165 175
    C165 200, 140 250, 100 280
    C80 295, 60 300, 50 310
    L45 315
    C55 340, 70 360, 90 370
    L120 375
    C130 370, 145 360, 150 350
    C155 340, 158 320, 160 300
    Z
    M235 175
    C235 200, 260 250, 300 280
    C320 295, 340 300, 350 310
    L355 315
    C345 340, 330 360, 310 370
    L280 375
    C270 370, 255 360, 250 350
    C245 340, 242 320, 240 300
    Z
    M150 350
    C155 380, 170 420, 200 430
    C230 420, 245 380, 250 350
    C245 380, 230 410, 200 420
    C170 410, 155 380, 150 350
    Z
  " stroke-linecap="round" stroke-linejoin="round"/>

  <!-- Lotus base -->
  <ellipse cx="200" cy="470" rx="130" ry="20" stroke="#d4af37" stroke-width="1.5" fill="none"/>
  <path d="M70 470 Q120 450, 200 445 Q280 450, 330 470" stroke="#d4af37" stroke-width="1" fill="none"/>
  <path d="M90 465 Q140 445, 200 440 Q260 445, 310 465" stroke="#d4af37" stroke-width="1" fill="none"/>
</svg>
